<svg width="186" height="41" viewBox="0 0 186 41" fill="none" xmlns="http://www.w3.org/2000/svg">
    <g clip-path="url(#clip0_101_1908)">
    <path d="M41.6075 28.3296C39.5429 30.5074 36.9211 31.5889 33.7258 31.5889C29.1868 31.5889 26.2373 29.3666 26.2373 26.0185C26.2373 22.5814 29.0393 20.3148 33.7749 19.4259C35.2989 19.1148 37.8715 18.8037 41.5092 18.4481V16.8481C41.5092 14.4037 39.1988 12.5666 35.9871 12.5666C32.8901 12.5666 30.6616 13.9444 30.6616 15.7814C30.6616 16.0037 30.7107 16.1814 30.7599 16.3592L27.0566 17.0111C26.9091 16.6555 26.86 16.2111 26.86 15.6777C26.86 12.0185 30.809 9.30737 36.2656 9.30737C41.542 9.30737 45.4255 12.3 45.4255 16.3889V26.9074C45.4255 27.7963 46.1137 28.4629 47.0969 28.4629C48.4242 28.4629 49.3582 26.9074 49.3582 24.8037L52.7174 25.5148C52.7174 28.9963 50.112 31.574 46.7036 31.574C44.1146 31.5889 42.05 30.2407 41.6075 28.3296ZM41.5092 25.0852V21.1592C37.9043 21.5592 35.2989 21.9592 33.6766 22.3592C31.5628 22.8926 30.3175 24.1814 30.3175 25.6185C30.3175 27.3518 31.8414 28.5222 34.1682 28.5222C37.0686 28.5074 39.7723 27.2185 41.5092 25.0852Z" fill="black"/>
    <path d="M90.9463 24.6853L86.0304 11.4853V31.1445H82.4746V9.75195H89.4715L94.2071 22.626L98.7952 9.75195H105.743V31.1445H102.187V11.5297L97.0583 24.6853H90.9463Z" fill="black"/>
    <path d="M128.553 31.1445V11.5297L118.295 31.1445H112.281V9.75195H116.034V27.8853L125.636 9.75195H132.289V31.1445H128.553Z" fill="black"/>
    <path d="M156.229 31.1445L147.02 22.0482H142.727C142.727 27.1742 142.727 30.1964 142.776 31.1445H138.827C138.876 29.0112 138.876 25.4408 138.876 20.4482C138.876 15.4557 138.876 11.9001 138.827 9.75195H142.776C142.727 11.5742 142.727 14.5668 142.727 18.7594H147.119L156.033 9.75195H160.965L150.658 20.1371L161.751 31.1445H156.229Z" fill="black"/>
    <path d="M184.724 24.9963C183.004 29.0555 178.809 31.5889 173.828 31.5889C167.076 31.5889 162.046 26.9963 162.046 20.4481C162.046 13.9444 167.076 9.30737 173.828 9.30737C179.448 9.30737 183.938 12.4333 185.216 17.2777L181.578 18.3444C180.743 14.9963 177.678 12.8185 173.893 12.8185C169.305 12.8185 165.913 16.0333 165.913 20.4333C165.913 24.8481 169.321 28.0481 173.893 28.0481C177.203 28.0481 179.956 26.3148 181.136 23.5L184.724 24.9963Z" fill="black"/>
    <path d="M16.6188 31.1148V21.8407H4.19809V31.1148H0.249023V9.72217H4.19809V18.5518H16.6188V9.72217H20.5515V31.1148H16.6188Z" fill="black"/>
    <path d="M13.3418 37.7075C13.3418 39.1742 12.0309 40.3594 10.4087 40.3594C8.78648 40.3594 7.47559 39.1742 7.47559 37.7075C7.47559 36.2408 8.78648 35.0557 10.4087 35.0557C12.0309 35.0557 13.3418 36.2408 13.3418 37.7075Z" fill="black"/>
    <path d="M13.3418 3.14453C13.3418 4.61119 12.0309 5.79638 10.4087 5.79638C8.78648 5.79638 7.47559 4.61119 7.47559 3.14453C7.47559 1.67786 8.78648 0.492676 10.4087 0.492676C12.0309 0.492676 13.3418 1.67786 13.3418 3.14453Z" fill="black"/>
    <path d="M71.7255 0.477783C71.7255 3.45556 69.0709 5.81112 65.7773 5.81112C62.582 5.81112 59.8291 3.45556 59.8291 0.477783H62.8933C62.8933 3.87038 68.6449 3.87038 68.6449 0.477783H71.7255Z" fill="black"/>
    <path d="M72.0373 31.189V11.589L61.796 31.189H55.7822V9.79639H59.5183V27.9297L69.137 9.79639H75.7898V31.189H72.0373Z" fill="black"/>
    </g>
    <defs>
    <clipPath id="clip0_101_1908">
    <rect width="185" height="40" fill="white" transform="translate(0.183594 0.427002)"/>
    </clipPath>
    </defs>
    </svg>
    